<?xml version="1.0" encoding="utf-8"?>
<?xml-stylesheet type="text/xsl" href="rss1.xsl"?>
<rss version="2.0" xmlns:atom="http://www.w3.org/2005/Atom" xmlns:content="http://purl.org/rss/1.0/modules/content/" xmlns:dc="http://purl.org/dc/elements/1.1/" xmlns:media="http://search.yahoo.com/mrss/">
<channel>
 <title>Getty</title>
 <link>http://www.gettyimg.com/</link>
 <atom:link href="http://www.gettyimg.com/" rel="self" type="application/rss+xml" />

 
                <item>
                <title><![CDATA[【Requests】[REQ AUD] - Wild Rose Bombay Rockers]]></title>
                <link><![CDATA[https://sharemania.us/threads/wild-rose-bombay-rockers.243445/]]></link>
                <description><![CDATA[<article>
<blockquote class="messageText SelectQuoteContainer ugc baseHtml">
Hello folks, <br>
<br>
Please upload completely album, would really appreciate it. <br>
<br>
<a href="https://www.qobuz.com/ie-en/album/wild-rose-bombay-rockers/k6jy1tw2y8uvc" target="_blank" class="externalLink" rel="nofollow">https://www.qobuz.com/ie-en/album/wild-rose-bombay-rockers/k6jy1tw2y8uvc</a>
<div class="messageTextEndMarker">&nbsp;</div>
</blockquote>
</article>]]></description>
                <author><![CDATA[The Architect]]></author>
                </item>

                
                <item>
                <title><![CDATA[【Apple Music】WEB-RiP - Iggy Azalea &amp; Tyga - Sip It (1080p)]]></title>
                <link><![CDATA[https://sharemania.us/threads/iggy-azalea-tyga-sip-it-1080p.243444/]]></link>
                <description><![CDATA[<article>
<blockquote class="messageText SelectQuoteContainer ugc baseHtml">
<img src="https://i.postimg.cc/NM8QNFCr/Iggy-Azalea-Tyga-Sip-It-mp4.jpg" class="bbCodeImage LbImage" alt="[​IMG]" data-url="https://i.postimg.cc/NM8QNFCr/Iggy-Azalea-Tyga-Sip-It-mp4.jpg" style=""><br>
<br>
<div class="bbCodeBlock bbCodeCode">
<div class="type">Code:</div>
<pre>General
Complete name                  : G:\Новая папка\Iggy Azalea &amp; Tyga - Sip It.mp4
Format                         : MPEG-4
Format profile                 : Base Media
Codec ID                       : isom (isom/iso2/avc1/mp41)
File size                      : 253 MiB
Duration                       : 3 min 34 s
Overall bit rate               : 9 897 kb/s
Frame rate                     : 23.976 FPS
Movie name                     : Sip It
Performer                      : Iggy Azalea &amp; Tyga
Genre                          : Hip-Hop/Rap
ContentType                    : Music Video
Recorded date                  : 2021-04-01 07:00:00 UTC
Writing application            : Lavf56.30.100
Copyright                      : ℗ 2021 Bad Dreams Records / EMPIRE

Video
ID                             : 1
Format                         : AVC
Format/Info                    : Advanced Video Codec
Format profile                 : High@L4
Format settings                : CABAC / 4 Ref Frames
Format settings, CABAC         : Yes
Format settings, Reference fra : 4 frames
Format settings, Slice count   : 8 slices per frame
Codec ID                       : avc1
Codec ID/Info                  : Advanced Video Coding
Duration                       : 3 min 34 s
Bit rate                       : 9 642 kb/s
Width                          : 1 920 pixels
Height                         : 1 080 pixels
Display aspect ratio           : 16:9
Frame rate mode                : Constant
Frame rate                     : 23.976 (24000/1001) FPS
Color space                    : YUV
Chroma subsampling             : 4:2:0
Bit depth                      : 8 bits
Scan type                      : Progressive
Bits/(Pixel*Frame)             : 0.194
Stream size                    : 247 MiB (97%)
Color range                    : Limited
Color primaries                : BT.709
Transfer characteristics       : BT.709
Matrix coefficients            : BT.709
Codec configuration box        : avcC

Audio
ID                             : 2
Format                         : AAC LC
Format/Info                    : Advanced Audio Codec Low Complexity
Codec ID                       : mp4a-40-2
Duration                       : 3 min 34 s
Duration_LastFrame             : -4 ms
Bit rate mode                  : Constant
Bit rate                       : 251 kb/s
Channel(s)                     : 2 channels
Channel layout                 : L R
Sampling rate                  : 48.0 kHz
Frame rate                     : 46.875 FPS (1024 SPF)
Compression mode               : Lossy
Stream size                    : 6.43 MiB (3%)
Default                        : Yes
Alternate group                : 1

</pre>
</div>
<div class="bbCodeBlock bbCodeVfcHH HiddenContent">
<div class="attribution type">Hidden Content:</div>
<blockquote>You must either reply or click 'Like' to see the hidden information contained here.</blockquote>
</div>
<div class="messageTextEndMarker">&nbsp;</div>
</blockquote>
</article>]]></description>
                <author><![CDATA[vitalya3]]></author>
                </item>

                
                <item>
                <title><![CDATA[【Requests】[REQ AUD] - Janet – "Someone to Call My Lover" (Jam &amp; Lewis' Total 80's Remix)]]></title>
                <link><![CDATA[https://sharemania.us/threads/janet-%E2%80%93-someone-to-call-my-lover-jam-lewis-total-80s-remix.243443/]]></link>
                <description><![CDATA[<article>
<blockquote class="messageText SelectQuoteContainer ugc baseHtml">
Discogs Link: <a href="https://www.discogs.com/release/899295-Janet-Someone-To-Call-My-Lover" target="_blank" class="externalLink" rel="nofollow">https://www.discogs.com/release/899295-Janet-Someone-To-Call-My-Lover</a><br>
<a href="https://www.discogs.com/release/2048143-Janet-Someone-To-Call-My-Lover" target="_blank" class="externalLink" rel="nofollow">https://www.discogs.com/release/2048143-Janet-Someone-To-Call-My-Lover</a><br>
<br>
Thank you very much in advance!
<div class="messageTextEndMarker">&nbsp;</div>
</blockquote>
</article>]]></description>
                <author><![CDATA[Archie_Carey]]></author>
                </item>

                
                <item>
                <title><![CDATA[【Apple Music】WEB-RiP - Samantha Jade - Shake That (feat. Pitbull) (1080p)]]></title>
                <link><![CDATA[https://sharemania.us/threads/samantha-jade-shake-that-feat-pitbull-1080p.243446/]]></link>
                <description><![CDATA[<article>
<blockquote class="messageText SelectQuoteContainer ugc baseHtml">
<img src="https://i.postimg.cc/hGmqk8pG/Samantha-Jade-Shake-That-feat-Pitbull-mp4.jpg" class="bbCodeImage LbImage" alt="[​IMG]" data-url="https://i.postimg.cc/hGmqk8pG/Samantha-Jade-Shake-That-feat-Pitbull-mp4.jpg" style=""><br>
<br>
<div class="bbCodeBlock bbCodeCode">
<div class="type">Code:</div>
<pre>General
Complete name                  : G:\Новая папка\Samantha Jade - Shake That (feat. Pitbull).mp4
Format                         : MPEG-4
Format profile                 : Base Media
Codec ID                       : isom (isom/iso2/avc1/mp41)
File size                      : 178 MiB
Duration                       : 3 min 37 s
Overall bit rate               : 6 865 kb/s
Frame rate                     : 25.000 FPS
Movie name                     : Shake That (feat. Pitbull)
Performer                      : Samantha Jade
Genre                          : Pop
ContentType                    : Music Video
Recorded date                  : 2015-07-17 07:00:00 UTC
Writing application            : Lavf56.30.100
Copyright                      : ℗ (C) 2015 Sony Music Entertainment Australia Pty Ltd.

Video
ID                             : 1
Format                         : AVC
Format/Info                    : Advanced Video Codec
Format profile                 : High@L4
Format settings                : CABAC / 5 Ref Frames
Format settings, CABAC         : Yes
Format settings, Reference fra : 5 frames
Format settings, Slice count   : 8 slices per frame
Codec ID                       : avc1
Codec ID/Info                  : Advanced Video Coding
Duration                       : 3 min 37 s
Bit rate                       : 6 605 kb/s
Width                          : 1 920 pixels
Height                         : 810 pixels
Display aspect ratio           : 2.39:1
Frame rate mode                : Constant
Frame rate                     : 25.000 FPS
Color space                    : YUV
Chroma subsampling             : 4:2:0
Bit depth                      : 8 bits
Scan type                      : Progressive
Bits/(Pixel*Frame)             : 0.170
Stream size                    : 172 MiB (96%)
Color range                    : Limited
Color primaries                : BT.709
Transfer characteristics       : BT.709
Matrix coefficients            : BT.709
Codec configuration box        : avcC

Audio
ID                             : 2
Format                         : AAC LC
Format/Info                    : Advanced Audio Codec Low Complexity
Codec ID                       : mp4a-40-2
Duration                       : 3 min 37 s
Duration_LastFrame             : -15 ms
Bit rate mode                  : Constant
Bit rate                       : 256 kb/s
Channel(s)                     : 2 channels
Channel layout                 : L R
Sampling rate                  : 48.0 kHz
Frame rate                     : 46.875 FPS (1024 SPF)
Compression mode               : Lossy
Stream size                    : 6.64 MiB (4%)
Default                        : Yes
Alternate group                : 1

</pre>
</div>
<div class="bbCodeBlock bbCodeVfcHH HiddenContent">
<div class="attribution type">Hidden Content:</div>
<blockquote>You must either reply or click 'Like' to see the hidden information contained here.</blockquote>
</div>
<div class="messageTextEndMarker">&nbsp;</div>
</blockquote>
</article>]]></description>
                <author><![CDATA[vitalya3]]></author>
                </item>

                </channel></rss>